<svg width="38" height="37" viewBox="0 0 38 37" fill="none" xmlns="http://www.w3.org/2000/svg">
<path d="M37.505 6.84605L19.262 0.0472245C19.0928 -0.0157415 18.9072 -0.0157415 18.738 0.0472245L0.495039 6.84605V6.8468C0.435664 6.86929 0.377773 6.89852 0.324336 6.936C0.120977 7.07842 0 7.31305 0 7.56341V29.4366C0 29.7567 0.197422 30.043 0.495039 30.1539L18.738 36.9528C18.8234 36.9843 18.9117 37 19 37C19.0891 37 19.1781 36.9835 19.262 36.952V36.9528L37.505 30.1539C37.8026 30.043 38 29.7567 38 29.4366V7.56341C38 7.24259 37.8026 6.95699 37.505 6.84605ZM18.243 35.138L1.51406 28.9036V8.66007L4.9207 9.92988V19.1934C4.9207 19.5135 5.11812 19.7998 5.41574 19.9107L13.5909 22.9571C13.6763 22.9886 13.7646 23.0043 13.8529 23.0043C14.0058 23.0043 14.1572 22.9578 14.2856 22.8671C14.489 22.724 14.61 22.4901 14.61 22.2397V13.5407L18.2437 14.8944L18.243 35.138ZM13.0959 12.9762V21.1423L6.43477 18.6597V10.4936L13.0959 12.9762ZM7.86422 9.39092L13.8529 7.15938L19.8416 9.39092L13.8529 11.6225L7.86422 9.39092ZM19 13.5467L16.0312 12.4403L22.2901 10.1075C22.5877 9.9966 22.7852 9.71025 22.7852 9.39017C22.7852 9.0701 22.5877 8.78375 22.2901 8.67281L14.1149 5.62646C13.9457 5.56349 13.7602 5.56349 13.5909 5.62646L5.66883 8.57911L2.94352 7.56341L19 1.5794L35.0565 7.56266L19 13.5467ZM36.4859 28.9036L19.757 35.138V14.8944L36.4859 8.66007V28.9036Z" fill="#999999"/>
</svg>
